<?xml version="1.0" standalone="no"?>
<!DOCTYPE svg PUBLIC "-//W3C//DTD SVG 20010904//EN"
 "http://www.w3.org/TR/2001/REC-SVG-20010904/DTD/svg10.dtd">
<svg version="1.0" xmlns="http://www.w3.org/2000/svg"
 width="260.000000pt" height="260.000000pt" viewBox="0 0 260.000000 260.000000"
 preserveAspectRatio="xMidYMid meet">
<metadata>
Created by potrace 1.14, written by Peter Selinger 2001-2017
</metadata>
<g transform="translate(0.000000,260.000000) scale(0.100000,-0.100000)"
fill="#000000" stroke="none">
<path d="M1198 2594 c-2 -1 -30 -5 -64 -8 -70 -7 -228 -46 -305 -76 -241 -94
-484 -294 -623 -512 -144 -227 -207 -456 -201 -728 2 -80 6 -161 10 -180 21
-118 74 -280 127 -383 108 -214 333 -440 554 -558 117 -63 286 -119 412 -136
85 -12 359 -9 422 5 30 7 66 14 79 17 83 16 269 93 356 148 162 102 323 255
417 397 152 229 220 468 213 745 -2 77 -7 158 -10 180 -12 68 -56 229 -66 240
-5 5 -9 15 -9 23 0 33 -133 270 -185 328 -5 6 -32 37 -60 69 -99 113 -277 245
-418 310 -133 60 -233 90 -377 112 -36 5 -268 12 -272 7z m120 -146 c7 -24 67
-208 134 -409 l121 -366 428 1 c236 1 429 -2 429 -5 0 -3 -154 -117 -342 -254
-189 -137 -345 -250 -347 -251 -1 -2 13 -51 32 -111 233 -711 237 -724 223
-716 -6 3 -49 34 -96 68 -273 199 -558 404 -580 418 -24 15 -27 14 -70 -17
-308 -227 -653 -476 -655 -474 -1 2 11 44 27 93 16 50 77 235 135 413 58 178
103 324 102 326 -38 28 -644 467 -668 483 -26 18 -30 23 -15 24 10 0 207 1
437 2 l417 0 15 49 c41 139 250 768 255 768 3 0 11 -19 18 -42z"/>
</g>
</svg>
